<?xml version="1.0" encoding="utf-8"?>
<!-- Generator: Adobe Illustrator 24.1.1, SVG Export Plug-In . SVG Version: 6.00 Build 0)  -->
<svg version="1.1" id="Ebene_1" xmlns="http://www.w3.org/2000/svg" xmlns:xlink="http://www.w3.org/1999/xlink" x="0px" y="0px"
	 viewBox="0 0 1263 480.9" style="enable-background:new 0 0 1263 480.9;" xml:space="preserve">
<style type="text/css">
	.st0{opacity:0.8;fill:#A0A0A0;stroke:#000000;stroke-width:0.4353;stroke-miterlimit:1.7411;enable-background:new    ;}
	.st1{opacity:0.8;fill:#E0E0E0;stroke:#000000;stroke-width:0.4353;stroke-miterlimit:1.7411;enable-background:new    ;}
	.st2{fill-opacity:0;stroke:#000000;stroke-width:0.4353;stroke-miterlimit:1.7411;stroke-opacity:0.8;}
	.st3{fill:none;stroke:#000000;stroke-width:0.2177;stroke-miterlimit:1.7411;stroke-opacity:0.8;}
	.st4{font-family:'ArialMT';}
	.st5{font-size:10.5561px;}
</style>
<g transform="translate(689.870900265467,351.295320301351) scale(0.6597539553864472)">
	<rect id="_x30__x5F_0" x="-1007.5" y="-293.7" class="st0" width="224" height="224"/>
	<rect id="_x30__x5F_1" x="-999.5" y="-285.7" class="st1" width="224" height="224"/>
	<rect id="_x30__x5F_2" x="-991.5" y="-277.7" class="st0" width="224" height="224"/>
	<rect id="_x31__x5F_0" x="-743.5" y="-345.7" class="st0" width="224" height="224"/>
	<rect id="_x31__x5F_1" x="-735.5" y="-337.7" class="st1" width="224" height="224"/>
	<rect id="_x31__x5F_2" x="-727.5" y="-329.7" class="st0" width="224" height="224"/>
	<rect id="_x31__x5F_3" x="-719.5" y="-321.7" class="st1" width="224" height="224"/>
	<rect id="_x31__x5F_4" x="-711.5" y="-313.7" class="st0" width="224" height="224"/>
	<rect id="_x31__x5F_5" x="-703.5" y="-305.7" class="st1" width="224" height="224"/>
	<rect id="_x31__x5F_6" x="-695.5" y="-297.7" class="st0" width="224" height="224"/>
	<rect id="_x31__x5F_7" x="-687.5" y="-289.7" class="st1" width="224" height="224"/>
	<rect id="_x31__x5F_8" x="-679.5" y="-281.7" class="st0" width="224" height="224"/>
	<rect id="_x31__x5F_9" x="-671.5" y="-273.7" class="st1" width="224" height="224"/>
	<rect id="_x31__x5F_10" x="-663.5" y="-265.7" class="st0" width="224" height="224"/>
	<rect id="_x31__x5F_11" x="-655.5" y="-257.7" class="st1" width="224" height="224"/>
	<rect id="_x31__x5F_12" x="-647.5" y="-249.7" class="st0" width="224" height="224"/>
	<rect id="_x31__x5F_13" x="-639.5" y="-241.7" class="st1" width="224" height="224"/>
	<rect id="_x31__x5F_14" x="-631.5" y="-233.7" class="st0" width="224" height="224"/>
	<rect id="_x31__x5F_15" x="-623.5" y="-225.7" class="st1" width="224" height="224"/>
	<rect id="_x32__x5F_0" x="-368.5" y="-289.7" class="st0" width="112" height="112"/>
	<rect id="_x32__x5F_1" x="-360.5" y="-281.7" class="st1" width="112" height="112"/>
	<rect id="_x32__x5F_2" x="-352.5" y="-273.7" class="st0" width="112" height="112"/>
	<rect id="_x32__x5F_3" x="-344.5" y="-265.7" class="st1" width="112" height="112"/>
	<rect id="_x32__x5F_4" x="-336.5" y="-257.7" class="st0" width="112" height="112"/>
	<rect id="_x32__x5F_5" x="-328.5" y="-249.7" class="st1" width="112" height="112"/>
	<rect id="_x32__x5F_6" x="-320.5" y="-241.7" class="st0" width="112" height="112"/>
	<rect id="_x32__x5F_7" x="-312.5" y="-233.7" class="st1" width="112" height="112"/>
	<rect id="_x32__x5F_8" x="-304.5" y="-225.7" class="st0" width="112" height="112"/>
	<rect id="_x32__x5F_9" x="-296.5" y="-217.7" class="st1" width="112" height="112"/>
	<rect id="_x32__x5F_10" x="-288.5" y="-209.7" class="st0" width="112" height="112"/>
	<rect id="_x32__x5F_11" x="-280.5" y="-201.7" class="st1" width="112" height="112"/>
	<rect id="_x32__x5F_12" x="-272.5" y="-193.7" class="st0" width="112" height="112"/>
	<rect id="_x32__x5F_13" x="-264.5" y="-185.7" class="st1" width="112" height="112"/>
	<rect id="_x32__x5F_14" x="-256.5" y="-177.7" class="st0" width="112" height="112"/>
	<rect id="_x32__x5F_15" x="-248.5" y="-169.7" class="st1" width="112" height="112"/>
	<rect id="_x33__x5F_0" x="-145.5" y="-353.7" class="st0" width="112" height="112"/>
	<rect id="_x33__x5F_1" x="-137.5" y="-345.7" class="st1" width="112" height="112"/>
	<rect id="_x33__x5F_2" x="-129.5" y="-337.7" class="st0" width="112" height="112"/>
	<rect id="_x33__x5F_3" x="-121.5" y="-329.7" class="st1" width="112" height="112"/>
	<rect id="_x33__x5F_4" x="-113.5" y="-321.7" class="st0" width="112" height="112"/>
	<rect id="_x33__x5F_5" x="-105.5" y="-313.7" class="st1" width="112" height="112"/>
	<rect id="_x33__x5F_6" x="-97.5" y="-305.7" class="st0" width="112" height="112"/>
	<rect id="_x33__x5F_7" x="-89.5" y="-297.7" class="st1" width="112" height="112"/>
	<rect id="_x33__x5F_8" x="-81.5" y="-289.7" class="st0" width="112" height="112"/>
	<rect id="_x33__x5F_9" x="-73.5" y="-281.7" class="st1" width="112" height="112"/>
	<rect id="_x33__x5F_10" x="-65.5" y="-273.7" class="st0" width="112" height="112"/>
	<rect id="_x33__x5F_11" x="-57.5" y="-265.7" class="st1" width="112" height="112"/>
	<rect id="_x33__x5F_12" x="-49.5" y="-257.7" class="st0" width="112" height="112"/>
	<rect id="_x33__x5F_13" x="-41.5" y="-249.7" class="st1" width="112" height="112"/>
	<rect id="_x33__x5F_14" x="-33.5" y="-241.7" class="st0" width="112" height="112"/>
	<rect id="_x33__x5F_15" x="-25.5" y="-233.7" class="st1" width="112" height="112"/>
	<rect id="_x33__x5F_16" x="-17.5" y="-225.7" class="st0" width="112" height="112"/>
	<rect id="_x33__x5F_17" x="-9.5" y="-217.7" class="st1" width="112" height="112"/>
	<rect id="_x33__x5F_18" x="-1.5" y="-209.7" class="st0" width="112" height="112"/>
	<rect id="_x33__x5F_19" x="6.5" y="-201.7" class="st1" width="112" height="112"/>
	<rect id="_x33__x5F_20" x="14.5" y="-193.7" class="st0" width="112" height="112"/>
	<rect id="_x33__x5F_21" x="22.5" y="-185.7" class="st1" width="112" height="112"/>
	<rect id="_x33__x5F_22" x="30.5" y="-177.7" class="st0" width="112" height="112"/>
	<rect id="_x33__x5F_23" x="38.5" y="-169.7" class="st1" width="112" height="112"/>
	<rect id="_x33__x5F_24" x="46.5" y="-161.7" class="st0" width="112" height="112"/>
	<rect id="_x33__x5F_25" x="54.5" y="-153.7" class="st1" width="112" height="112"/>
	<rect id="_x33__x5F_26" x="62.5" y="-145.7" class="st0" width="112" height="112"/>
	<rect id="_x33__x5F_27" x="70.5" y="-137.7" class="st1" width="112" height="112"/>
	<rect id="_x33__x5F_28" x="78.5" y="-129.7" class="st0" width="112" height="112"/>
	<rect id="_x33__x5F_29" x="86.5" y="-121.7" class="st1" width="112" height="112"/>
	<rect id="_x33__x5F_30" x="94.5" y="-113.7" class="st0" width="112" height="112"/>
	<rect id="_x33__x5F_31" x="102.5" y="-105.7" class="st1" width="112" height="112"/>
	<rect id="_x34__x5F_0" x="114.5" y="-325.7" class="st0" width="56" height="56"/>
	<rect id="_x34__x5F_1" x="122.5" y="-317.7" class="st1" width="56" height="56"/>
	<rect id="_x34__x5F_2" x="130.5" y="-309.7" class="st0" width="56" height="56"/>
	<rect id="_x34__x5F_3" x="138.5" y="-301.7" class="st1" width="56" height="56"/>
	<rect id="_x34__x5F_4" x="146.5" y="-293.7" class="st0" width="56" height="56"/>
	<rect id="_x34__x5F_5" x="154.5" y="-285.7" class="st1" width="56" height="56"/>
	<rect id="_x34__x5F_6" x="162.5" y="-277.7" class="st0" width="56" height="56"/>
	<rect id="_x34__x5F_7" x="170.5" y="-269.7" class="st1" width="56" height="56"/>
	<rect id="_x34__x5F_8" x="178.5" y="-261.7" class="st0" width="56" height="56"/>
	<rect id="_x34__x5F_9" x="186.5" y="-253.7" class="st1" width="56" height="56"/>
	<rect id="_x34__x5F_10" x="194.5" y="-245.7" class="st0" width="56" height="56"/>
	<rect id="_x34__x5F_11" x="202.5" y="-237.7" class="st1" width="56" height="56"/>
	<rect id="_x34__x5F_12" x="210.5" y="-229.7" class="st0" width="56" height="56"/>
	<rect id="_x34__x5F_13" x="218.5" y="-221.7" class="st1" width="56" height="56"/>
	<rect id="_x34__x5F_14" x="226.5" y="-213.7" class="st0" width="56" height="56"/>
	<rect id="_x34__x5F_15" x="234.5" y="-205.7" class="st1" width="56" height="56"/>
	<rect id="_x34__x5F_16" x="242.5" y="-197.7" class="st0" width="56" height="56"/>
	<rect id="_x34__x5F_17" x="250.5" y="-189.7" class="st1" width="56" height="56"/>
	<rect id="_x34__x5F_18" x="258.5" y="-181.7" class="st0" width="56" height="56"/>
	<rect id="_x34__x5F_19" x="266.5" y="-173.7" class="st1" width="56" height="56"/>
	<rect id="_x34__x5F_20" x="274.5" y="-165.7" class="st0" width="56" height="56"/>
	<rect id="_x34__x5F_21" x="282.5" y="-157.7" class="st1" width="56" height="56"/>
	<rect id="_x34__x5F_22" x="290.5" y="-149.7" class="st0" width="56" height="56"/>
	<rect id="_x34__x5F_23" x="298.5" y="-141.7" class="st1" width="56" height="56"/>
	<rect id="_x34__x5F_24" x="306.5" y="-133.7" class="st0" width="56" height="56"/>
	<rect id="_x34__x5F_25" x="314.5" y="-125.7" class="st1" width="56" height="56"/>
	<rect id="_x34__x5F_26" x="322.5" y="-117.7" class="st0" width="56" height="56"/>
	<rect id="_x34__x5F_27" x="330.5" y="-109.7" class="st1" width="56" height="56"/>
	<rect id="_x34__x5F_28" x="338.5" y="-101.7" class="st0" width="56" height="56"/>
	<rect id="_x34__x5F_29" x="346.5" y="-93.7" class="st1" width="56" height="56"/>
	<rect id="_x34__x5F_30" x="354.5" y="-85.7" class="st0" width="56" height="56"/>
	<rect id="_x34__x5F_31" x="362.5" y="-77.7" class="st1" width="56" height="56"/>
	<rect id="_x35__x5F_0" x="333.5" y="-325.7" class="st0" width="56" height="56"/>
	<rect id="_x35__x5F_1" x="341.5" y="-317.7" class="st1" width="56" height="56"/>
	<rect id="_x35__x5F_2" x="349.5" y="-309.7" class="st0" width="56" height="56"/>
	<rect id="_x35__x5F_3" x="357.5" y="-301.7" class="st1" width="56" height="56"/>
	<rect id="_x35__x5F_4" x="365.5" y="-293.7" class="st0" width="56" height="56"/>
	<rect id="_x35__x5F_5" x="373.5" y="-285.7" class="st1" width="56" height="56"/>
	<rect id="_x35__x5F_6" x="381.5" y="-277.7" class="st0" width="56" height="56"/>
	<rect id="_x35__x5F_7" x="389.5" y="-269.7" class="st1" width="56" height="56"/>
	<rect id="_x35__x5F_8" x="397.5" y="-261.7" class="st0" width="56" height="56"/>
	<rect id="_x35__x5F_9" x="405.5" y="-253.7" class="st1" width="56" height="56"/>
	<rect id="_x35__x5F_10" x="413.5" y="-245.7" class="st0" width="56" height="56"/>
	<rect id="_x35__x5F_11" x="421.5" y="-237.7" class="st1" width="56" height="56"/>
	<rect id="_x35__x5F_12" x="429.5" y="-229.7" class="st0" width="56" height="56"/>
	<rect id="_x35__x5F_13" x="437.5" y="-221.7" class="st1" width="56" height="56"/>
	<rect id="_x35__x5F_14" x="445.5" y="-213.7" class="st0" width="56" height="56"/>
	<rect id="_x35__x5F_15" x="453.5" y="-205.7" class="st1" width="56" height="56"/>
	<rect id="_x35__x5F_16" x="461.5" y="-197.7" class="st0" width="56" height="56"/>
	<rect id="_x35__x5F_17" x="469.5" y="-189.7" class="st1" width="56" height="56"/>
	<rect id="_x35__x5F_18" x="477.5" y="-181.7" class="st0" width="56" height="56"/>
	<rect id="_x35__x5F_19" x="485.5" y="-173.7" class="st1" width="56" height="56"/>
	<rect id="_x35__x5F_20" x="493.5" y="-165.7" class="st0" width="56" height="56"/>
	<rect id="_x35__x5F_21" x="501.5" y="-157.7" class="st1" width="56" height="56"/>
	<rect id="_x35__x5F_22" x="509.5" y="-149.7" class="st0" width="56" height="56"/>
	<rect id="_x35__x5F_23" x="517.5" y="-141.7" class="st1" width="56" height="56"/>
	<rect id="_x35__x5F_24" x="525.5" y="-133.7" class="st0" width="56" height="56"/>
	<rect id="_x35__x5F_25" x="533.5" y="-125.7" class="st1" width="56" height="56"/>
	<rect id="_x35__x5F_26" x="541.5" y="-117.7" class="st0" width="56" height="56"/>
	<rect id="_x35__x5F_27" x="549.5" y="-109.7" class="st1" width="56" height="56"/>
	<rect id="_x35__x5F_28" x="557.5" y="-101.7" class="st0" width="56" height="56"/>
	<rect id="_x35__x5F_29" x="565.5" y="-93.7" class="st1" width="56" height="56"/>
	<rect id="_x35__x5F_30" x="573.5" y="-85.7" class="st0" width="56" height="56"/>
	<rect id="_x35__x5F_31" x="581.5" y="-77.7" class="st1" width="56" height="56"/>
	<rect id="conv_0" x="-893.9" y="-88.7" class="st2" width="3" height="3"/>
	<rect id="conv_1" x="-443.4" y="-96.3" class="st2" width="2" height="2"/>
	<rect id="conv_2" x="-201.4" y="-124.7" class="st2" width="3" height="3"/>
	<rect id="conv_3" x="126.8" y="-21.7" class="st2" width="8" height="8"/>
	<rect id="conv_4" x="371.8" y="-49.3" class="st2" width="2" height="2"/>
	<line id="conv_0_1_" class="st3" x1="-890.9" y1="-85.7" x2="-524.6" y2="-34.1"/>
	<line id="conv_0_2_" class="st3" x1="-890.9" y1="-88.7" x2="-524.6" y2="-34.1"/>
	<line id="conv_1_1_" class="st3" x1="-441.4" y1="-94.3" x2="-157.6" y2="-104.4"/>
	<line id="conv_1_2_" class="st3" x1="-441.4" y1="-96.3" x2="-157.6" y2="-104.4"/>
	<line id="conv_2_1_" class="st3" x1="-198.4" y1="-121.7" x2="150.9" y2="-59.4"/>
	<line id="conv_2_2_" class="st3" x1="-198.4" y1="-124.7" x2="150.9" y2="-59.4"/>
	<line id="conv_3_1_" class="st3" x1="134.8" y1="-13.7" x2="375.6" y2="-32.5"/>
	<line id="conv_3_2_" class="st3" x1="134.8" y1="-21.7" x2="375.6" y2="-32.5"/>
	<line id="conv_4_1_" class="st3" x1="373.8" y1="-47.3" x2="591.1" y2="-48.3"/>
	<line id="conv_4_2_" class="st3" x1="373.8" y1="-49.3" x2="591.1" y2="-48.3"/>
	<polygon id="fc_0" class="st1" points="592.5,-264.2 602.5,-264.2 783.6,-83.2 773.6,-83.2 	"/>
	<polygon id="fc_1" class="st1" points="785.6,-176.5 795.6,-176.5 801.2,-170.9 791.2,-170.9 	"/>
	<line id="fc_0_1_" class="st3" x1="637.5" y1="-21.7" x2="773.6" y2="-83.2"/>
	<line id="fc_0_2_" class="st3" x1="389.5" y1="-325.7" x2="592.5" y2="-264.2"/>
	<line id="fc_1_1_" class="st3" x1="783.6" y1="-83.2" x2="791.2" y2="-170.9"/>
	<line id="fc_1_2_" class="st3" x1="602.5" y1="-264.2" x2="785.6" y2="-176.5"/>
	<text transform="matrix(1.5157 0 0 1.5157 -684.4634 71.8838)" class="st4 st5">Conv2D</text>
	<text transform="matrix(1.5157 0 0 1.5157 -340.9627 71.8838)" class="st4 st5">MaxPool2D</text>
	<text transform="matrix(1.5157 0 0 1.5157 -65.9623 71.8838)" class="st4 st5">Conv2D</text>
	<text transform="matrix(1.5157 0 0 1.5157 225.5363 71.8838)" class="st4 st5">MaxPool2D</text>
	<text transform="matrix(1.5157 0 0 1.5157 437.0365 71.8838)" class="st4 st5">Conv2D</text>
	<text transform="matrix(1.5157 0 0 1.5157 690.7612 71.884)" class="st4 st5">Flatten+Dense</text>
	<text transform="matrix(1.5157 0 0 1.5157 -1007.4634 -313.5167)" class="st4 st5">3@224x224</text>
	<text transform="matrix(1.5157 0 0 1.5157 -743.4639 -365.5173)" class="st4 st5">32@224x224</text>
	<text transform="matrix(1.5157 0 0 1.5157 -368.4632 -309.5172)" class="st4 st5">32@112x112</text>
	<text transform="matrix(1.5157 0 0 1.5157 -145.4634 -373.5163)" class="st4 st5">64@112x112</text>
	<text transform="matrix(1.5157 0 0 1.5157 114.5368 -345.517)" class="st4 st5">64@56x56</text>
	<text transform="matrix(1.5157 0 0 1.5157 333.5371 -345.517)" class="st4 st5">64@56x56</text>
	<text transform="matrix(1.5157 0 0 1.5157 592.5366 -284.0268)" class="st4 st5">1x200704</text>
	<text transform="matrix(1.5157 0 0 1.5157 785.5565 -196.3447)" class="st4 st5">1x2</text>
</g>
</svg>
