<?xml version="1.0" encoding="utf-8"?>
<!-- Generator: Adobe Illustrator 24.1.1, SVG Export Plug-In . SVG Version: 6.00 Build 0)  -->
<svg version="1.1" id="Ebene_1" xmlns="http://www.w3.org/2000/svg" xmlns:xlink="http://www.w3.org/1999/xlink" x="0px" y="0px"
	 viewBox="0 0 663.5 734.6" style="enable-background:new 0 0 663.5 734.6;" xml:space="preserve">
<style type="text/css">
	.st0{stroke:#505050;stroke-width:0.5;}
	.st1{fill:#FFFFFF;stroke:#333333;}
	.st2{enable-background:new    ;}
	.st3{font-family:'ArialMT';}
	.st4{font-size:12px;}
	.st5{font-family:'MyriadPro-Regular';}
	.st6{stroke:#000000;stroke-width:1.393530e-02;stroke-miterlimit:10;}
</style>
<g transform="translate(8,-70) scale(1)">
	<path marker-end="" class="st0" d="M136.2,118.3l180,80"/>
	<path marker-end="" class="st0" d="M136.2,118.3l180,120"/>
	<path marker-end="" class="st0" d="M136.2,118.3l180,160"/>
	<path marker-end="" class="st0" d="M136.2,118.3l180,200"/>
	<path marker-end="" class="st0" d="M136.2,118.3l180,240"/>
	<path marker-end="" class="st0" d="M136.2,118.3l180,320"/>
	<path marker-end="" class="st0" d="M136.2,118.3l180,360"/>
	<path marker-end="" class="st0" d="M136.2,118.3l180,400"/>
	<path marker-end="" class="st0" d="M136.2,118.3l180,440"/>
	<path marker-end="" class="st0" d="M136.2,118.3l180,480"/>
	<path marker-end="" class="st0" d="M136.2,118.3l180,520"/>
	<path marker-end="" class="st0" d="M136.2,158.3l180,40"/>
	<path marker-end="" class="st0" d="M136.2,158.3l180,80"/>
	<path marker-end="" class="st0" d="M136.2,158.3l180,120"/>
	<path marker-end="" class="st0" d="M136.2,158.3l180,160"/>
	<path marker-end="" class="st0" d="M136.2,158.3l180,200"/>
	<path marker-end="" class="st0" d="M136.2,158.3l180,280"/>
	<path marker-end="" class="st0" d="M136.2,158.3l180,320"/>
	<path marker-end="" class="st0" d="M136.2,158.3l180,360"/>
	<path marker-end="" class="st0" d="M136.2,158.3l180,400"/>
	<path marker-end="" class="st0" d="M136.2,158.3l180,440"/>
	<path marker-end="" class="st0" d="M136.2,158.3l180,480"/>
	<path marker-end="" class="st0" d="M136.2,198.3h180"/>
	<path marker-end="" class="st0" d="M136.2,198.3l180,40"/>
	<path marker-end="" class="st0" d="M136.2,198.3l180,80"/>
	<path marker-end="" class="st0" d="M136.2,198.3l180,120"/>
	<path marker-end="" class="st0" d="M136.2,198.3l180,160"/>
	<path marker-end="" class="st0" d="M136.2,198.3l180,240"/>
	<path marker-end="" class="st0" d="M136.2,198.3l180,280"/>
	<path marker-end="" class="st0" d="M136.2,198.3l180,320"/>
	<path marker-end="" class="st0" d="M136.2,198.3l180,360"/>
	<path marker-end="" class="st0" d="M136.2,198.3l180,400"/>
	<path marker-end="" class="st0" d="M136.2,198.3l180,440"/>
	<path marker-end="" class="st0" d="M136.2,238.3l180-40"/>
	<path marker-end="" class="st0" d="M136.2,238.3h180"/>
	<path marker-end="" class="st0" d="M136.2,238.3l180,40"/>
	<path marker-end="" class="st0" d="M136.2,238.3l180,80"/>
	<path marker-end="" class="st0" d="M136.2,238.3l180,120"/>
	<path marker-end="" class="st0" d="M136.2,238.3l180,200"/>
	<path marker-end="" class="st0" d="M136.2,238.3l180,240"/>
	<path marker-end="" class="st0" d="M136.2,238.3l180,280"/>
	<path marker-end="" class="st0" d="M136.2,238.3l180,320"/>
	<path marker-end="" class="st0" d="M136.2,238.3l180,360"/>
	<path marker-end="" class="st0" d="M136.2,238.3l180,400"/>
	<path marker-end="" class="st0" d="M136.2,278.3l180-80"/>
	<path marker-end="" class="st0" d="M136.2,278.3l180-40"/>
	<path marker-end="" class="st0" d="M136.2,278.3h180"/>
	<path marker-end="" class="st0" d="M136.2,278.3l180,40"/>
	<path marker-end="" class="st0" d="M136.2,278.3l180,80"/>
	<path marker-end="" class="st0" d="M136.2,278.3l180,160"/>
	<path marker-end="" class="st0" d="M136.2,278.3l180,200"/>
	<path marker-end="" class="st0" d="M136.2,278.3l180,240"/>
	<path marker-end="" class="st0" d="M136.2,278.3l180,280"/>
	<path marker-end="" class="st0" d="M136.2,278.3l180,320"/>
	<path marker-end="" class="st0" d="M136.2,278.3l180,360"/>
	<path marker-end="" class="st0" d="M136.2,318.3l180-120"/>
	<path marker-end="" class="st0" d="M136.2,318.3l180-80"/>
	<path marker-end="" class="st0" d="M136.2,318.3l180-40"/>
	<path marker-end="" class="st0" d="M136.2,318.3h180"/>
	<path marker-end="" class="st0" d="M136.2,318.3l180,40"/>
	<path marker-end="" class="st0" d="M136.2,318.3l180,120"/>
	<path marker-end="" class="st0" d="M136.2,318.3l180,160"/>
	<path marker-end="" class="st0" d="M136.2,318.3l180,200"/>
	<path marker-end="" class="st0" d="M136.2,318.3l180,240"/>
	<path marker-end="" class="st0" d="M136.2,318.3l180,280"/>
	<path marker-end="" class="st0" d="M136.2,318.3l180,320"/>
	<path marker-end="" class="st0" d="M136.2,358.3l180-160"/>
	<path marker-end="" class="st0" d="M136.2,358.3l180-120"/>
	<path marker-end="" class="st0" d="M136.2,358.3l180-80"/>
	<path marker-end="" class="st0" d="M136.2,358.3l180-40"/>
	<path marker-end="" class="st0" d="M136.2,358.3h180"/>
	<path marker-end="" class="st0" d="M136.2,358.3l180,80"/>
	<path marker-end="" class="st0" d="M136.2,358.3l180,120"/>
	<path marker-end="" class="st0" d="M136.2,358.3l180,160"/>
	<path marker-end="" class="st0" d="M136.2,358.3l180,200"/>
	<path marker-end="" class="st0" d="M136.2,358.3l180,240"/>
	<path marker-end="" class="st0" d="M136.2,358.3l180,280"/>
	<path marker-end="" class="st0" d="M136.2,438.3l180-240"/>
	<path marker-end="" class="st0" d="M136.2,438.3l180-200"/>
	<path marker-end="" class="st0" d="M136.2,438.3l180-160"/>
	<path marker-end="" class="st0" d="M136.2,438.3l180-120"/>
	<path marker-end="" class="st0" d="M136.2,438.3l180-80"/>
	<path marker-end="" class="st0" d="M136.2,438.3h180"/>
	<path marker-end="" class="st0" d="M136.2,438.3l180,40"/>
	<path marker-end="" class="st0" d="M136.2,438.3l180,80"/>
	<path marker-end="" class="st0" d="M136.2,438.3l180,120"/>
	<path marker-end="" class="st0" d="M136.2,438.3l180,160"/>
	<path marker-end="" class="st0" d="M136.2,438.3l180,200"/>
	<path marker-end="" class="st0" d="M136.2,478.3l180-280"/>
	<path marker-end="" class="st0" d="M136.2,478.3l180-240"/>
	<path marker-end="" class="st0" d="M136.2,478.3l180-200"/>
	<path marker-end="" class="st0" d="M136.2,478.3l180-160"/>
	<path marker-end="" class="st0" d="M136.2,478.3l180-120"/>
	<path marker-end="" class="st0" d="M136.2,478.3l180-40"/>
	<path marker-end="" class="st0" d="M136.2,478.3h180"/>
	<path marker-end="" class="st0" d="M136.2,478.3l180,40"/>
	<path marker-end="" class="st0" d="M136.2,478.3l180,80"/>
	<path marker-end="" class="st0" d="M136.2,478.3l180,120"/>
	<path marker-end="" class="st0" d="M136.2,478.3l180,160"/>
	<path marker-end="" class="st0" d="M136.2,518.3l180-320"/>
	<path marker-end="" class="st0" d="M136.2,518.3l180-280"/>
	<path marker-end="" class="st0" d="M136.2,518.3l180-240"/>
	<path marker-end="" class="st0" d="M136.2,518.3l180-200"/>
	<path marker-end="" class="st0" d="M136.2,518.3l180-160"/>
	<path marker-end="" class="st0" d="M136.2,518.3l180-80"/>
	<path marker-end="" class="st0" d="M136.2,518.3l180-40"/>
	<path marker-end="" class="st0" d="M136.2,518.3h180"/>
	<path marker-end="" class="st0" d="M136.2,518.3l180,40"/>
	<path marker-end="" class="st0" d="M136.2,518.3l180,80"/>
	<path marker-end="" class="st0" d="M136.2,518.3l180,120"/>
	<path marker-end="" class="st0" d="M136.2,558.3l180-360"/>
	<path marker-end="" class="st0" d="M136.2,558.3l180-320"/>
	<path marker-end="" class="st0" d="M136.2,558.3l180-280"/>
	<path marker-end="" class="st0" d="M136.2,558.3l180-240"/>
	<path marker-end="" class="st0" d="M136.2,558.3l180-200"/>
	<path marker-end="" class="st0" d="M136.2,558.3l180-120"/>
	<path marker-end="" class="st0" d="M136.2,558.3l180-80"/>
	<path marker-end="" class="st0" d="M136.2,558.3l180-40"/>
	<path marker-end="" class="st0" d="M136.2,558.3h180"/>
	<path marker-end="" class="st0" d="M136.2,558.3l180,40"/>
	<path marker-end="" class="st0" d="M136.2,558.3l180,80"/>
	<path marker-end="" class="st0" d="M136.2,598.3l180-400"/>
	<path marker-end="" class="st0" d="M136.2,598.3l180-360"/>
	<path marker-end="" class="st0" d="M136.2,598.3l180-320"/>
	<path marker-end="" class="st0" d="M136.2,598.3l180-280"/>
	<path marker-end="" class="st0" d="M136.2,598.3l180-240"/>
	<path marker-end="" class="st0" d="M136.2,598.3l180-160"/>
	<path marker-end="" class="st0" d="M136.2,598.3l180-120"/>
	<path marker-end="" class="st0" d="M136.2,598.3l180-80"/>
	<path marker-end="" class="st0" d="M136.2,598.3l180-40"/>
	<path marker-end="" class="st0" d="M136.2,598.3h180"/>
	<path marker-end="" class="st0" d="M136.2,598.3l180,40"/>
	<path marker-end="" class="st0" d="M136.2,638.3l180-440"/>
	<path marker-end="" class="st0" d="M136.2,638.3l180-400"/>
	<path marker-end="" class="st0" d="M136.2,638.3l180-360"/>
	<path marker-end="" class="st0" d="M136.2,638.3l180-320"/>
	<path marker-end="" class="st0" d="M136.2,638.3l180-280"/>
	<path marker-end="" class="st0" d="M136.2,638.3l180-200"/>
	<path marker-end="" class="st0" d="M136.2,638.3l180-160"/>
	<path marker-end="" class="st0" d="M136.2,638.3l180-120"/>
	<path marker-end="" class="st0" d="M136.2,638.3l180-80"/>
	<path marker-end="" class="st0" d="M136.2,638.3l180-40"/>
	<path marker-end="" class="st0" d="M136.2,638.3h180"/>
	<path marker-end="" class="st0" d="M136.2,678.3l180-480"/>
	<path marker-end="" class="st0" d="M136.2,678.3l180-440"/>
	<path marker-end="" class="st0" d="M136.2,678.3l180-400"/>
	<path marker-end="" class="st0" d="M136.2,678.3l180-360"/>
	<path marker-end="" class="st0" d="M136.2,678.3l180-320"/>
	<path marker-end="" class="st0" d="M136.2,678.3l180-240"/>
	<path marker-end="" class="st0" d="M136.2,678.3l180-200"/>
	<path marker-end="" class="st0" d="M136.2,678.3l180-160"/>
	<path marker-end="" class="st0" d="M136.2,678.3l180-120"/>
	<path marker-end="" class="st0" d="M136.2,678.3l180-80"/>
	<path marker-end="" class="st0" d="M136.2,678.3l180-40"/>
	<path marker-end="" class="st0" d="M136.2,718.3l180-520"/>
	<path marker-end="" class="st0" d="M136.2,718.3l180-480"/>
	<path marker-end="" class="st0" d="M136.2,718.3l180-440"/>
	<path marker-end="" class="st0" d="M136.2,718.3l180-400"/>
	<path marker-end="" class="st0" d="M136.2,718.3l180-360"/>
	<path marker-end="" class="st0" d="M136.2,718.3l180-280"/>
	<path marker-end="" class="st0" d="M136.2,718.3l180-240"/>
	<path marker-end="" class="st0" d="M136.2,718.3l180-200"/>
	<path marker-end="" class="st0" d="M136.2,718.3l180-160"/>
	<path marker-end="" class="st0" d="M136.2,718.3l180-120"/>
	<path marker-end="" class="st0" d="M136.2,718.3l180-80"/>
	<path marker-end="" class="st0" d="M316.2,198.3l180,40"/>
	<path marker-end="" class="st0" d="M316.2,198.3l180,80"/>
	<path marker-end="" class="st0" d="M316.2,198.3l180,120"/>
	<path marker-end="" class="st0" d="M316.2,198.3l180,160"/>
	<path marker-end="" class="st0" d="M316.2,198.3l180,200"/>
	<path marker-end="" class="st0" d="M316.2,198.3l180,240"/>
	<path marker-end="" class="st0" d="M316.2,198.3l180,280"/>
	<path marker-end="" class="st0" d="M316.2,198.3l180,320"/>
	<path marker-end="" class="st0" d="M316.2,198.3l180,360"/>
	<path marker-end="" class="st0" d="M316.2,198.3l180,400"/>
	<path marker-end="" class="st0" d="M316.2,238.3h180"/>
	<path marker-end="" class="st0" d="M316.2,238.3l180,40"/>
	<path marker-end="" class="st0" d="M316.2,238.3l180,80"/>
	<path marker-end="" class="st0" d="M316.2,238.3l180,120"/>
	<path marker-end="" class="st0" d="M316.2,238.3l180,160"/>
	<path marker-end="" class="st0" d="M316.2,238.3l180,200"/>
	<path marker-end="" class="st0" d="M316.2,238.3l180,240"/>
	<path marker-end="" class="st0" d="M316.2,238.3l180,280"/>
	<path marker-end="" class="st0" d="M316.2,238.3l180,320"/>
	<path marker-end="" class="st0" d="M316.2,238.3l180,360"/>
	<path marker-end="" class="st0" d="M316.2,278.3l180-40"/>
	<path marker-end="" class="st0" d="M316.2,278.3h180"/>
	<path marker-end="" class="st0" d="M316.2,278.3l180,40"/>
	<path marker-end="" class="st0" d="M316.2,278.3l180,80"/>
	<path marker-end="" class="st0" d="M316.2,278.3l180,120"/>
	<path marker-end="" class="st0" d="M316.2,278.3l180,160"/>
	<path marker-end="" class="st0" d="M316.2,278.3l180,200"/>
	<path marker-end="" class="st0" d="M316.2,278.3l180,240"/>
	<path marker-end="" class="st0" d="M316.2,278.3l180,280"/>
	<path marker-end="" class="st0" d="M316.2,278.3l180,320"/>
	<path marker-end="" class="st0" d="M316.2,318.3l180-80"/>
	<path marker-end="" class="st0" d="M316.2,318.3l180-40"/>
	<path marker-end="" class="st0" d="M316.2,318.3h180"/>
	<path marker-end="" class="st0" d="M316.2,318.3l180,40"/>
	<path marker-end="" class="st0" d="M316.2,318.3l180,80"/>
	<path marker-end="" class="st0" d="M316.2,318.3l180,120"/>
	<path marker-end="" class="st0" d="M316.2,318.3l180,160"/>
	<path marker-end="" class="st0" d="M316.2,318.3l180,200"/>
	<path marker-end="" class="st0" d="M316.2,318.3l180,240"/>
	<path marker-end="" class="st0" d="M316.2,318.3l180,280"/>
	<path marker-end="" class="st0" d="M316.2,358.3l180-120"/>
	<path marker-end="" class="st0" d="M316.2,358.3l180-80"/>
	<path marker-end="" class="st0" d="M316.2,358.3l180-40"/>
	<path marker-end="" class="st0" d="M316.2,358.3h180"/>
	<path marker-end="" class="st0" d="M316.2,358.3l180,40"/>
	<path marker-end="" class="st0" d="M316.2,358.3l180,80"/>
	<path marker-end="" class="st0" d="M316.2,358.3l180,120"/>
	<path marker-end="" class="st0" d="M316.2,358.3l180,160"/>
	<path marker-end="" class="st0" d="M316.2,358.3l180,200"/>
	<path marker-end="" class="st0" d="M316.2,358.3l180,240"/>
	<path marker-end="" class="st0" d="M316.2,438.3l180-200"/>
	<path marker-end="" class="st0" d="M316.2,438.3l180-160"/>
	<path marker-end="" class="st0" d="M316.2,438.3l180-120"/>
	<path marker-end="" class="st0" d="M316.2,438.3l180-80"/>
	<path marker-end="" class="st0" d="M316.2,438.3l180-40"/>
	<path marker-end="" class="st0" d="M316.2,438.3h180"/>
	<path marker-end="" class="st0" d="M316.2,438.3l180,40"/>
	<path marker-end="" class="st0" d="M316.2,438.3l180,80"/>
	<path marker-end="" class="st0" d="M316.2,438.3l180,120"/>
	<path marker-end="" class="st0" d="M316.2,438.3l180,160"/>
	<path marker-end="" class="st0" d="M316.2,478.3l180-240"/>
	<path marker-end="" class="st0" d="M316.2,478.3l180-200"/>
	<path marker-end="" class="st0" d="M316.2,478.3l180-160"/>
	<path marker-end="" class="st0" d="M316.2,478.3l180-120"/>
	<path marker-end="" class="st0" d="M316.2,478.3l180-80"/>
	<path marker-end="" class="st0" d="M316.2,478.3l180-40"/>
	<path marker-end="" class="st0" d="M316.2,478.3h180"/>
	<path marker-end="" class="st0" d="M316.2,478.3l180,40"/>
	<path marker-end="" class="st0" d="M316.2,478.3l180,80"/>
	<path marker-end="" class="st0" d="M316.2,478.3l180,120"/>
	<path marker-end="" class="st0" d="M316.2,518.3l180-280"/>
	<path marker-end="" class="st0" d="M316.2,518.3l180-240"/>
	<path marker-end="" class="st0" d="M316.2,518.3l180-200"/>
	<path marker-end="" class="st0" d="M316.2,518.3l180-160"/>
	<path marker-end="" class="st0" d="M316.2,518.3l180-120"/>
	<path marker-end="" class="st0" d="M316.2,518.3l180-80"/>
	<path marker-end="" class="st0" d="M316.2,518.3l180-40"/>
	<path marker-end="" class="st0" d="M316.2,518.3h180"/>
	<path marker-end="" class="st0" d="M316.2,518.3l180,40"/>
	<path marker-end="" class="st0" d="M316.2,518.3l180,80"/>
	<path marker-end="" class="st0" d="M316.2,558.3l180-320"/>
	<path marker-end="" class="st0" d="M316.2,558.3l180-280"/>
	<path marker-end="" class="st0" d="M316.2,558.3l180-240"/>
	<path marker-end="" class="st0" d="M316.2,558.3l180-200"/>
	<path marker-end="" class="st0" d="M316.2,558.3l180-160"/>
	<path marker-end="" class="st0" d="M316.2,558.3l180-120"/>
	<path marker-end="" class="st0" d="M316.2,558.3l180-80"/>
	<path marker-end="" class="st0" d="M316.2,558.3l180-40"/>
	<path marker-end="" class="st0" d="M316.2,558.3h180"/>
	<path marker-end="" class="st0" d="M316.2,558.3l180,40"/>
	<path marker-end="" class="st0" d="M316.2,598.3l180-360"/>
	<path marker-end="" class="st0" d="M316.2,598.3l180-320"/>
	<path marker-end="" class="st0" d="M316.2,598.3l180-280"/>
	<path marker-end="" class="st0" d="M316.2,598.3l180-240"/>
	<path marker-end="" class="st0" d="M316.2,598.3l180-200"/>
	<path marker-end="" class="st0" d="M316.2,598.3l180-160"/>
	<path marker-end="" class="st0" d="M316.2,598.3l180-120"/>
	<path marker-end="" class="st0" d="M316.2,598.3l180-80"/>
	<path marker-end="" class="st0" d="M316.2,598.3l180-40"/>
	<path marker-end="" class="st0" d="M316.2,598.3h180"/>
	<path marker-end="" class="st0" d="M316.2,638.3l180-400"/>
	<path marker-end="" class="st0" d="M316.2,638.3l180-360"/>
	<path marker-end="" class="st0" d="M316.2,638.3l180-320"/>
	<path marker-end="" class="st0" d="M316.2,638.3l180-280"/>
	<path marker-end="" class="st0" d="M316.2,638.3l180-240"/>
	<path marker-end="" class="st0" d="M316.2,638.3l180-200"/>
	<path marker-end="" class="st0" d="M316.2,638.3l180-160"/>
	<path marker-end="" class="st0" d="M316.2,638.3l180-120"/>
	<path marker-end="" class="st0" d="M316.2,638.3l180-80"/>
	<path marker-end="" class="st0" d="M316.2,638.3l180-40"/>
	<circle id="_x30__x5F_0" class="st1" cx="136.2" cy="118.3" r="10"/>
	<circle id="_x30__x5F_1" class="st1" cx="136.2" cy="158.3" r="10"/>
	<circle id="_x30__x5F_2" class="st1" cx="136.2" cy="198.3" r="10"/>
	<circle id="_x30__x5F_3" class="st1" cx="136.2" cy="238.3" r="10"/>
	<circle id="_x30__x5F_4" class="st1" cx="136.2" cy="278.3" r="10"/>
	<circle id="_x30__x5F_5" class="st1" cx="136.2" cy="318.3" r="10"/>
	<circle id="_x30__x5F_6" class="st1" cx="136.2" cy="358.3" r="10"/>
	<circle id="_x30__x5F_8" class="st1" cx="136.2" cy="438.3" r="10"/>
	<circle id="_x30__x5F_9" class="st1" cx="136.2" cy="478.3" r="10"/>
	<circle id="_x30__x5F_10" class="st1" cx="136.2" cy="518.3" r="10"/>
	<circle id="_x30__x5F_11" class="st1" cx="136.2" cy="558.3" r="10"/>
	<circle id="_x30__x5F_12" class="st1" cx="136.2" cy="598.3" r="10"/>
	<circle id="_x30__x5F_13" class="st1" cx="136.2" cy="638.3" r="10"/>
	<circle id="_x30__x5F_14" class="st1" cx="136.2" cy="678.3" r="10"/>
	<circle id="_x30__x5F_15" class="st1" cx="136.2" cy="718.3" r="10"/>
	<circle id="_x31__x5F_0" class="st1" cx="316.2" cy="198.3" r="10"/>
	<circle id="_x31__x5F_1" class="st1" cx="316.2" cy="238.3" r="10"/>
	<circle id="_x31__x5F_2" class="st1" cx="316.2" cy="278.3" r="10"/>
	<circle id="_x31__x5F_3" class="st1" cx="316.2" cy="318.3" r="10"/>
	<circle id="_x31__x5F_4" class="st1" cx="316.2" cy="358.3" r="10"/>
	<circle id="_x31__x5F_6" class="st1" cx="316.2" cy="438.3" r="10"/>
	<circle id="_x31__x5F_7" class="st1" cx="316.2" cy="478.3" r="10"/>
	<circle id="_x31__x5F_8" class="st1" cx="316.2" cy="518.3" r="10"/>
	<circle id="_x31__x5F_9" class="st1" cx="316.2" cy="558.3" r="10"/>
	<circle id="_x31__x5F_10" class="st1" cx="316.2" cy="598.3" r="10"/>
	<circle id="_x31__x5F_11" class="st1" cx="316.2" cy="638.3" r="10"/>
	<circle id="_x32__x5F_0" class="st1" cx="496.2" cy="238.3" r="10"/>
	<circle id="_x32__x5F_1" class="st1" cx="496.2" cy="278.3" r="10"/>
	<circle id="_x32__x5F_2" class="st1" cx="496.2" cy="318.3" r="10"/>
	<circle id="_x32__x5F_3" class="st1" cx="496.2" cy="358.3" r="10"/>
	<circle id="_x32__x5F_4" class="st1" cx="496.2" cy="398.3" r="10"/>
	<circle id="_x32__x5F_5" class="st1" cx="496.2" cy="438.3" r="10"/>
	<circle id="_x32__x5F_6" class="st1" cx="496.2" cy="478.3" r="10"/>
	<circle id="_x32__x5F_7" class="st1" cx="496.2" cy="518.3" r="10"/>
	<circle id="_x32__x5F_8" class="st1" cx="496.2" cy="558.3" r="10"/>
	<circle id="_x32__x5F_9" class="st1" cx="496.2" cy="598.3" r="10"/>
	<text transform="matrix(1 0 0 1 101.2343 762.4604)" class="st2"><tspan x="0" y="0" class="st3 st4">Input Layer </tspan><tspan x="63.4" y="0" class="st5 st4">28*28</tspan></text>
	<text transform="matrix(1 0 0 1 281.2343 762.4604)" class="st2"><tspan x="0" y="0" class="st3 st4">Hidden Layer </tspan><tspan x="74.7" y="0" class="st5 st4">64</tspan></text>
	<text transform="matrix(1 0 0 1 461.2344 762.4604)" class="st2"><tspan x="0" y="0" class="st3 st4">Output Layer </tspan><tspan x="72.7" y="0" class="st5 st4">10</tspan></text>
	<g>
		<path id="E1-MJMAIN-22EE_2_" class="st6" d="M135.4,403.9c0-0.2,0.1-0.4,0.2-0.6c0.2-0.2,0.4-0.3,0.6-0.3c0.2,0,0.4,0.1,0.6,0.2
			c0.2,0.1,0.3,0.3,0.3,0.6c0,0.2-0.1,0.4-0.2,0.6c-0.2,0.2-0.4,0.3-0.6,0.3c-0.2,0-0.4-0.1-0.6-0.2
			C135.5,404.3,135.4,404.1,135.4,403.9z M135.4,398.2c0-0.2,0.1-0.4,0.2-0.6c0.2-0.2,0.4-0.3,0.6-0.3c0.2,0,0.4,0.1,0.6,0.2
			c0.2,0.1,0.3,0.3,0.3,0.6c0,0.2-0.1,0.4-0.2,0.6c-0.2,0.2-0.4,0.3-0.6,0.3c-0.2,0-0.4-0.1-0.6-0.2
			C135.5,398.6,135.4,398.4,135.4,398.2z M135.4,392.6c0-0.2,0.1-0.4,0.2-0.6c0.2-0.2,0.4-0.3,0.6-0.3c0.2,0,0.4,0.1,0.6,0.2
			c0.2,0.1,0.3,0.3,0.3,0.6c0,0.2-0.1,0.4-0.2,0.6c-0.2,0.2-0.4,0.3-0.6,0.3c-0.2,0-0.4-0.1-0.6-0.2
			C135.5,393.1,135.4,392.9,135.4,392.6z"/>
	</g>
	<g>
		<path id="E1-MJMAIN-22EE_1_" class="st6" d="M316.4,404c0-0.2,0.1-0.4,0.2-0.6c0.2-0.2,0.4-0.3,0.6-0.3c0.2,0,0.4,0.1,0.6,0.2
			c0.2,0.1,0.3,0.3,0.3,0.6c0,0.2-0.1,0.4-0.2,0.6c-0.2,0.2-0.4,0.3-0.6,0.3s-0.4-0.1-0.6-0.2S316.4,404.2,316.4,404z M316.4,398.3
			c0-0.2,0.1-0.4,0.2-0.6c0.2-0.2,0.4-0.3,0.6-0.3c0.2,0,0.4,0.1,0.6,0.2c0.2,0.1,0.3,0.3,0.3,0.6c0,0.2-0.1,0.4-0.2,0.6
			c-0.2,0.2-0.4,0.3-0.6,0.3s-0.4-0.1-0.6-0.2S316.4,398.5,316.4,398.3z M316.4,392.7c0-0.2,0.1-0.4,0.2-0.6
			c0.2-0.2,0.4-0.3,0.6-0.3c0.2,0,0.4,0.1,0.6,0.2c0.2,0.1,0.3,0.3,0.3,0.6c0,0.2-0.1,0.4-0.2,0.6c-0.2,0.2-0.4,0.3-0.6,0.3
			s-0.4-0.1-0.6-0.2S316.4,392.9,316.4,392.7z"/>
	</g>
</g>
</svg>
